<?xml version="1.0" encoding="utf-8"?>
<svg version="1.1" id="Layer_1"
xmlns="http://www.w3.org/2000/svg"
xmlns:xlink="http://www.w3.org/1999/xlink"
width="550px" height="400px"
xml:space="preserve">
<g id="PathID_1" transform="matrix(0.163129, -0.124094, 0.124094, 0.163129, 308.95, 258.15)" opacity="0.54">
<path style="fill:#47B0E0;fill-opacity:1" d="M149 25.5L149 86.6Q149 112.1 123.55 112.1L25.5 112.1Q0 112.1 0 86.6L0 25.5Q0 0 25.5 0L123.55 0Q149 0 149 25.5" />
</g>
<g id="PathID_2" transform="matrix(0.163129, -0.124094, 0.124094, 0.163129, 308.95, 258.15)" opacity="0.54">
</g>
<g id="PathID_3" transform="matrix(-1.11833, 0.481677, 0.481677, 1.11833, 319, 69.65)" opacity="0.37">
<path style="fill:#FDCE13;fill-opacity:1" d="M149 25.5L149 86.6Q149 112.1 123.55 112.1L25.5 112.1Q0 112.1 0 86.6L0 25.5Q0 0 25.5 0L123.55 0Q149 0 149 25.5" />
</g>
<g id="PathID_4" transform="matrix(-1.11833, 0.481677, 0.481677, 1.11833, 319, 69.65)" opacity="0.37">
</g>
<g id="PathID_5" transform="matrix(1.19441, -0.23677, 0.23677, 1.19441, 161.25, 118.75)" opacity="1">
<path style="fill:#47B0E0;fill-opacity:1" d="M149 25.5L149 86.6Q149 112.1 123.55 112.1L25.5 112.1Q0 112.1 0 86.6L0 25.5Q0 0 25.5 0L123.55 0Q149 0 149 25.5" />
</g>
<g id="PathID_6" transform="matrix(1.19441, -0.23677, 0.23677, 1.19441, 161.25, 118.75)" opacity="1">
</g>
<g id="PathID_7" transform="matrix(1.21765, 0, 0, 1.21765, 172.75, 99.75)" opacity="0.8">
<path style="fill:#760145;fill-opacity:1" d="M149 25.5L149 86.6Q149 112.1 123.55 112.1L25.5 112.1Q0 112.1 0 86.6L0 25.5Q0 0 25.5 0L123.55 0Q149 0 149 25.5" />
</g>
<g id="PathID_8" transform="matrix(1.21765, 0, 0, 1.21765, 172.75, 99.75)" opacity="0.8">
</g>
<filter id="filter3" x="-0.529762" y="-0.529762" width="2.23952" height="2.26894" >
<feComponentTransfer in="SourceGraphic">
	<feFuncR type="linear" slope="0"/>
	<feFuncG type="linear" slope="0"/>
	<feFuncB type="linear" slope="0"/>
</feComponentTransfer>
<feGaussianBlur stdDeviation="1 1" />
<feOffset dx="3.2413e-005" dy="3"/>
<feComponentTransfer result="1">
	<feFuncR type="linear" Ue="0" intercept="0.0941176"/>
	<feFuncG type="linear" Ue="0" intercept="0"/>
	<feFuncB type="linear" Ue="0" intercept="0.192157"/>
	<feFuncA type="linear" xh="0" slope="0.5"/>
</feComponentTransfer>
<feComposite result="2"  in="SourceGraphic" in2="1" operator="over"/>
</filter>
<g style="filter:url(#filter3);">
<g id="PathID_9" transform="matrix(1.56963, 0, 0, 1.56963, 187.75, 196.1)" opacity="1">
<path style="fill:#FFFFFF;fill-opacity:1" d="M12.65 -40.5L12.65 -8.1L19.05 -8.1L19.05 0L2.1 0L2.1 -40.5L12.65 -40.5" />
</g>
<g id="PathID_10" transform="matrix(1.56963, 0, 0, 1.56963, 187.75, 196.1)" opacity="1">
</g>
<g id="PathID_11" transform="matrix(1.56963, 0, 0, 1.56963, 218.3, 196.1)" opacity="1">
<path style="fill:#FFFFFF;fill-opacity:1" d="M24.65 -21.5L24.65 -13.4Q24.65 -8.9 24.2 -6.8Q23.75 -4.75 22.25 -2.9Q20.8 -1.1 18.45 -0.25Q16.15 0.6 13.15 0.6Q9.8 0.6 7.45 -0.1Q5.15 -0.85 3.85 -2.35Q2.6 -3.85 2.05 -5.95Q1.5 -8.05 1.5 -12.3L1.5 -20.8Q1.5 -25.4 2.5 -28Q3.5 -30.6 6.1 -32.2Q8.7 -33.8 12.75 -33.8Q16.15 -33.8 18.55 -32.75Q21 -31.75 22.3 -30.1Q23.65 -28.5 24.15 -26.75Q24.65 -25.05 24.65 -21.5M14.55 -24Q14.55 -26.55 14.25 -27.2Q14 -27.9 13.1 -27.9Q12.2 -27.9 11.9 -27.2Q11.6 -26.55 11.6 -24L11.6 -9.05Q11.6 -6.7 11.9 -6Q12.2 -5.3 13.05 -5.3Q13.95 -5.3 14.25 -5.9Q14.55 -6.55 14.55 -8.7L14.55 -24" />
</g>
<g id="PathID_12" transform="matrix(1.56963, 0, 0, 1.56963, 218.3, 196.1)" opacity="1">
</g>
<g id="PathID_13" transform="matrix(1.56963, 0, 0, 1.56963, 259.4, 196.1)" opacity="1">
<path style="fill:#FFFFFF;fill-opacity:1" d="M24.75 -33.2L24.75 -7.6Q24.75 -2.4 24.5 -0.9Q24.25 0.6 22.8 2.3Q21.35 4 18.75 4.85Q16.2 5.75 12.25 5.75Q7.45 5.75 4.5 4.1Q1.6 2.5 1.5 -2.35L11.3 -2.35Q11.3 -0.15 12.9 -0.15Q14.05 -0.15 14.45 -0.8Q14.85 -1.5 14.85 -3.65L14.85 -6.15Q13.5 -5 12.05 -4.4Q10.65 -3.8 9.05 -3.8Q6.3 -3.8 4.55 -4.9Q2.8 -6 2.15 -7.75Q1.5 -9.55 1.5 -12.85L1.5 -24.9Q1.5 -29.65 3.2 -31.7Q4.9 -33.8 8.35 -33.8Q10.25 -33.8 11.8 -33Q13.4 -32.2 14.65 -30.65L15.4 -33.2L24.75 -33.2M14.65 -24.35Q14.65 -26.65 14.35 -27.25Q14.1 -27.9 13.2 -27.9Q12.3 -27.9 11.95 -27.15Q11.6 -26.45 11.6 -24.35L11.6 -13.2Q11.6 -11 11.85 -10.35Q12.15 -9.7 13 -9.7Q14 -9.7 14.3 -10.45Q14.65 -11.25 14.65 -14.1L14.65 -24.35" />
</g>
<g id="PathID_14" transform="matrix(1.56963, 0, 0, 1.56963, 259.4, 196.1)" opacity="1">
</g>
<g id="PathID_15" transform="matrix(1.56963, 0, 0, 1.56963, 301.05, 196.1)" opacity="1">
<path style="fill:#FFFFFF;fill-opacity:1" d="M24.65 -21.5L24.65 -13.4Q24.65 -8.9 24.2 -6.8Q23.75 -4.75 22.25 -2.9Q20.8 -1.1 18.45 -0.25Q16.15 0.6 13.15 0.6Q9.8 0.6 7.45 -0.1Q5.15 -0.85 3.85 -2.35Q2.6 -3.85 2.05 -5.95Q1.5 -8.05 1.5 -12.3L1.5 -20.8Q1.5 -25.4 2.5 -28Q3.5 -30.6 6.1 -32.2Q8.7 -33.8 12.75 -33.8Q16.15 -33.8 18.55 -32.75Q21 -31.75 22.3 -30.1Q23.65 -28.5 24.15 -26.75Q24.65 -25.05 24.65 -21.5M14.55 -24Q14.55 -26.55 14.25 -27.2Q14 -27.9 13.1 -27.9Q12.2 -27.9 11.9 -27.2Q11.6 -26.55 11.6 -24L11.6 -9.05Q11.6 -6.7 11.9 -6Q12.2 -5.3 13.05 -5.3Q13.95 -5.3 14.25 -5.9Q14.55 -6.55 14.55 -8.7L14.55 -24" />
</g>
<g id="PathID_16" transform="matrix(1.56963, 0, 0, 1.56963, 301.05, 196.1)" opacity="1">
</g>
</g>
<g id="PathID_17" transform="matrix(0.26692, -0.143959, 0.143959, 0.26692, 282.4, 245.2)" opacity="0.37">
<path style="fill:#FDCE13;fill-opacity:1" d="M149 25.5L149 86.6Q149 112.1 123.55 112.1L25.5 112.1Q0 112.1 0 86.6L0 25.5Q0 0 25.5 0L123.55 0Q149 0 149 25.5" />
</g>
<g id="PathID_18" transform="matrix(0.26692, -0.143959, 0.143959, 0.26692, 282.4, 245.2)" opacity="0.37">
</g>
</svg>
